<?xml version="1.0" encoding="iso-8859-1"?>
<!-- Generator: Adobe Illustrator 19.0.0, SVG Export Plug-In . SVG Version: 6.00 Build 0)  -->
<svg version="1.1" id="Capa_1" xmlns="http://www.w3.org/2000/svg" xmlns:xlink="http://www.w3.org/1999/xlink" x="0px" y="0px"
	 viewBox="0 0 509.82 509.82" style="enable-background:new 0 0 509.82 509.82;" xml:space="preserve">
<g>
	
		<linearGradient id="SVGID_1_" gradientUnits="userSpaceOnUse" x1="-6.8146" y1="637.8827" x2="-6.8146" y2="571.8607" gradientTransform="matrix(8.5333 0 0 -8.5333 313.0613 5433.2261)">
		<stop  offset="0" style="stop-color:#FC5C7D"/>
		<stop  offset="0.129" style="stop-color:#F35E85"/>
		<stop  offset="0.343" style="stop-color:#D9659B"/>
		<stop  offset="0.616" style="stop-color:#B070BF"/>
		<stop  offset="0.934" style="stop-color:#777FF0"/>
		<stop  offset="1" style="stop-color:#6A82FB"/>
	</linearGradient>
	<path style="fill:url(#SVGID_1_);" d="M220.777,117.286H50.11c-4.71,0-8.533,3.823-8.533,8.533v341.333
		c0,4.71,3.823,8.533,8.533,8.533h409.6c4.71,0,8.533-3.823,8.533-8.533V125.82c0-4.71-3.823-8.533-8.533-8.533H346.532
		l66.765-66.483c3.337-3.328,3.337-8.73,0.009-12.066l-0.009-0.009L377.193,2.496c-3.328-3.328-8.738-3.328-12.066,0l-29.338,29.193
		c-0.384,0.205-0.742,0.452-1.084,0.717l-24.166,24.098c-0.256,0.316-0.478,0.649-0.674,0.998l-72.815,72.533l-10.24-10.24
		C225.214,118.191,223.038,117.286,220.777,117.286z M58.643,458.62v-17.067h158.601l17.067,17.067H58.643z M246.377,446.554
		l-19.567-19.567c-1.596-1.604-3.772-2.5-6.033-2.5H58.643V134.353h158.601l7.68,7.68l-77.38,77.056
		c-0.913,0.956-1.587,2.108-1.971,3.371h-0.094l-18.159,54.255c-1.493,4.471,0.922,9.301,5.393,10.795
		c1.749,0.58,3.635,0.589,5.385,0.009l54.281-18.014v-0.085c1.263-0.384,2.415-1.05,3.362-1.963l50.637-50.423V446.554z
		 M157.306,241.02l16.631,16.674l-24.986,8.294L157.306,241.02z M451.177,458.62H275.509l17.067-17.067h158.601V458.62z
		 M451.177,134.353v290.133H289.043c-2.261,0-4.437,0.896-6.033,2.5l-19.567,19.567V200.06l65.954-65.707H451.177z M371.125,20.587
		l24.073,24.166l-18.133,18.039l-24.081-24.141L371.125,20.587z M340.892,50.726l23.893,23.996l-12.058,12.015l-23.893-24.004
		L340.892,50.726z M316.708,74.816l24.073,24.141l-151.04,150.417l-24.081-24.141L316.708,74.816z"/>
	
		<linearGradient id="SVGID_2_" gradientUnits="userSpaceOnUse" x1="5.1854" y1="637.8827" x2="5.1854" y2="571.8607" gradientTransform="matrix(8.5333 0 0 -8.5333 313.0613 5433.2261)">
		<stop  offset="0" style="stop-color:#FC5C7D"/>
		<stop  offset="0.129" style="stop-color:#F35E85"/>
		<stop  offset="0.343" style="stop-color:#D9659B"/>
		<stop  offset="0.616" style="stop-color:#B070BF"/>
		<stop  offset="0.934" style="stop-color:#777FF0"/>
		<stop  offset="1" style="stop-color:#6A82FB"/>
	</linearGradient>
	<rect x="289.043" y="313.553" style="fill:url(#SVGID_2_);" width="136.533" height="17.067"/>
	
		<linearGradient id="SVGID_3_" gradientUnits="userSpaceOnUse" x1="0.1854" y1="637.8827" x2="0.1854" y2="571.8607" gradientTransform="matrix(8.5333 0 0 -8.5333 313.0613 5433.2261)">
		<stop  offset="0" style="stop-color:#FC5C7D"/>
		<stop  offset="0.129" style="stop-color:#F35E85"/>
		<stop  offset="0.343" style="stop-color:#D9659B"/>
		<stop  offset="0.616" style="stop-color:#B070BF"/>
		<stop  offset="0.934" style="stop-color:#777FF0"/>
		<stop  offset="1" style="stop-color:#6A82FB"/>
	</linearGradient>
	<rect x="306.11" y="279.42" style="fill:url(#SVGID_3_);" width="17.067" height="17.067"/>
	
		<linearGradient id="SVGID_4_" gradientUnits="userSpaceOnUse" x1="8.1854" y1="637.8827" x2="8.1854" y2="571.8607" gradientTransform="matrix(8.5333 0 0 -8.5333 313.0613 5433.2261)">
		<stop  offset="0" style="stop-color:#FC5C7D"/>
		<stop  offset="0.129" style="stop-color:#F35E85"/>
		<stop  offset="0.343" style="stop-color:#D9659B"/>
		<stop  offset="0.616" style="stop-color:#B070BF"/>
		<stop  offset="0.934" style="stop-color:#777FF0"/>
		<stop  offset="1" style="stop-color:#6A82FB"/>
	</linearGradient>
	<rect x="340.243" y="279.42" style="fill:url(#SVGID_4_);" width="85.333" height="17.067"/>
	
		<linearGradient id="SVGID_5_" gradientUnits="userSpaceOnUse" x1="5.1854" y1="637.8827" x2="5.1854" y2="571.8607" gradientTransform="matrix(8.5333 0 0 -8.5333 313.0613 5433.2261)">
		<stop  offset="0" style="stop-color:#FC5C7D"/>
		<stop  offset="0.129" style="stop-color:#F35E85"/>
		<stop  offset="0.343" style="stop-color:#D9659B"/>
		<stop  offset="0.616" style="stop-color:#B070BF"/>
		<stop  offset="0.934" style="stop-color:#777FF0"/>
		<stop  offset="1" style="stop-color:#6A82FB"/>
	</linearGradient>
	<rect x="289.043" y="347.686" style="fill:url(#SVGID_5_);" width="136.533" height="17.067"/>
	
		<linearGradient id="SVGID_6_" gradientUnits="userSpaceOnUse" x1="-18.8146" y1="637.8827" x2="-18.8146" y2="571.8607" gradientTransform="matrix(8.5333 0 0 -8.5333 313.0613 5433.2261)">
		<stop  offset="0" style="stop-color:#FC5C7D"/>
		<stop  offset="0.129" style="stop-color:#F35E85"/>
		<stop  offset="0.343" style="stop-color:#D9659B"/>
		<stop  offset="0.616" style="stop-color:#B070BF"/>
		<stop  offset="0.934" style="stop-color:#777FF0"/>
		<stop  offset="1" style="stop-color:#6A82FB"/>
	</linearGradient>
	<rect x="84.243" y="347.686" style="fill:url(#SVGID_6_);" width="136.533" height="17.067"/>
	
		<linearGradient id="SVGID_7_" gradientUnits="userSpaceOnUse" x1="-23.8146" y1="637.8827" x2="-23.8146" y2="571.8607" gradientTransform="matrix(8.5333 0 0 -8.5333 313.0613 5433.2261)">
		<stop  offset="0" style="stop-color:#FC5C7D"/>
		<stop  offset="0.129" style="stop-color:#F35E85"/>
		<stop  offset="0.343" style="stop-color:#D9659B"/>
		<stop  offset="0.616" style="stop-color:#B070BF"/>
		<stop  offset="0.934" style="stop-color:#777FF0"/>
		<stop  offset="1" style="stop-color:#6A82FB"/>
	</linearGradient>
	<rect x="101.31" y="313.553" style="fill:url(#SVGID_7_);" width="17.067" height="17.067"/>
	
		<linearGradient id="SVGID_8_" gradientUnits="userSpaceOnUse" x1="-15.8146" y1="637.8827" x2="-15.8146" y2="571.8607" gradientTransform="matrix(8.5333 0 0 -8.5333 313.0613 5433.2261)">
		<stop  offset="0" style="stop-color:#FC5C7D"/>
		<stop  offset="0.129" style="stop-color:#F35E85"/>
		<stop  offset="0.343" style="stop-color:#D9659B"/>
		<stop  offset="0.616" style="stop-color:#B070BF"/>
		<stop  offset="0.934" style="stop-color:#777FF0"/>
		<stop  offset="1" style="stop-color:#6A82FB"/>
	</linearGradient>
	<rect x="135.443" y="313.553" style="fill:url(#SVGID_8_);" width="85.333" height="17.067"/>
	
		<linearGradient id="SVGID_9_" gradientUnits="userSpaceOnUse" x1="-20.8146" y1="637.8827" x2="-20.8146" y2="571.8607" gradientTransform="matrix(8.5333 0 0 -8.5333 313.0613 5433.2261)">
		<stop  offset="0" style="stop-color:#FC5C7D"/>
		<stop  offset="0.129" style="stop-color:#F35E85"/>
		<stop  offset="0.343" style="stop-color:#D9659B"/>
		<stop  offset="0.616" style="stop-color:#B070BF"/>
		<stop  offset="0.934" style="stop-color:#777FF0"/>
		<stop  offset="1" style="stop-color:#6A82FB"/>
	</linearGradient>
	<rect x="84.243" y="381.82" style="fill:url(#SVGID_9_);" width="102.4" height="17.067"/>
	
		<linearGradient id="SVGID_10_" gradientUnits="userSpaceOnUse" x1="3.1854" y1="637.8827" x2="3.1854" y2="571.8607" gradientTransform="matrix(8.5333 0 0 -8.5333 313.0613 5433.2261)">
		<stop  offset="0" style="stop-color:#FC5C7D"/>
		<stop  offset="0.129" style="stop-color:#F35E85"/>
		<stop  offset="0.343" style="stop-color:#D9659B"/>
		<stop  offset="0.616" style="stop-color:#B070BF"/>
		<stop  offset="0.934" style="stop-color:#777FF0"/>
		<stop  offset="1" style="stop-color:#6A82FB"/>
	</linearGradient>
	<rect x="289.043" y="381.82" style="fill:url(#SVGID_10_);" width="102.4" height="17.067"/>
	
		<linearGradient id="SVGID_11_" gradientUnits="userSpaceOnUse" x1="4.8319" y1="637.8827" x2="4.8319" y2="571.8607" gradientTransform="matrix(8.5333 0 0 -8.5333 313.0613 5433.2261)">
		<stop  offset="0" style="stop-color:#FC5C7D"/>
		<stop  offset="0.129" style="stop-color:#F35E85"/>
		<stop  offset="0.343" style="stop-color:#D9659B"/>
		<stop  offset="0.616" style="stop-color:#B070BF"/>
		<stop  offset="0.934" style="stop-color:#777FF0"/>
		<stop  offset="1" style="stop-color:#6A82FB"/>
	</linearGradient>
	<path style="fill:url(#SVGID_11_);" d="M295.076,213.653l-12.066,12.066l25.6,25.6c3.337,3.328,8.738,3.328,12.066,0
		c0.768-0.768,1.382-1.673,1.809-2.671l23.381-54.562h79.71V177.02h-85.333c-3.413,0-6.494,2.031-7.842,5.171l-20.634,48.145
		L295.076,213.653z"/>
	
		<linearGradient id="SVGID_12_" gradientUnits="userSpaceOnUse" x1="8.1854" y1="637.8827" x2="8.1854" y2="571.8607" gradientTransform="matrix(8.5333 0 0 -8.5333 313.0613 5433.2261)">
		<stop  offset="0" style="stop-color:#FC5C7D"/>
		<stop  offset="0.129" style="stop-color:#F35E85"/>
		<stop  offset="0.343" style="stop-color:#D9659B"/>
		<stop  offset="0.616" style="stop-color:#B070BF"/>
		<stop  offset="0.934" style="stop-color:#777FF0"/>
		<stop  offset="1" style="stop-color:#6A82FB"/>
	</linearGradient>
	<rect x="374.377" y="236.753" style="fill:url(#SVGID_12_);" width="17.067" height="17.067"/>
	
		<linearGradient id="SVGID_13_" gradientUnits="userSpaceOnUse" x1="12.1854" y1="637.8827" x2="12.1854" y2="571.8607" gradientTransform="matrix(8.5333 0 0 -8.5333 313.0613 5433.2261)">
		<stop  offset="0" style="stop-color:#FC5C7D"/>
		<stop  offset="0.129" style="stop-color:#F35E85"/>
		<stop  offset="0.343" style="stop-color:#D9659B"/>
		<stop  offset="0.616" style="stop-color:#B070BF"/>
		<stop  offset="0.934" style="stop-color:#777FF0"/>
		<stop  offset="1" style="stop-color:#6A82FB"/>
	</linearGradient>
	<rect x="408.51" y="236.753" style="fill:url(#SVGID_13_);" width="17.067" height="17.067"/>
</g>
<linearGradient id="SVGID_14_" gradientUnits="userSpaceOnUse" x1="-5.5766" y1="637.8837" x2="-5.5766" y2="571.8677" gradientTransform="matrix(8.5333 0 0 -8.5333 313.0613 5433.2261)">
	<stop  offset="0" style="stop-color:#FC5C7D"/>
	<stop  offset="0.129" style="stop-color:#F35E85"/>
	<stop  offset="0.343" style="stop-color:#D9659B"/>
	<stop  offset="0.616" style="stop-color:#B070BF"/>
	<stop  offset="0.934" style="stop-color:#777FF0"/>
	<stop  offset="1" style="stop-color:#6A82FB"/>
</linearGradient>
<polygon style="fill:url(#SVGID_14_);" points="230.266,85.303 288.608,26.953 300.683,39.019 242.332,97.37 "/>
<g>
	
		<linearGradient id="SVGID_15_" gradientUnits="userSpaceOnUse" x1="-0.0371" y1="637.8827" x2="-0.0371" y2="571.8607" gradientTransform="matrix(8.5333 0 0 -8.5333 313.0613 5433.2261)">
		<stop  offset="0" style="stop-color:#FC5C7D"/>
		<stop  offset="0.129" style="stop-color:#F35E85"/>
		<stop  offset="0.343" style="stop-color:#D9659B"/>
		<stop  offset="0.616" style="stop-color:#B070BF"/>
		<stop  offset="0.934" style="stop-color:#777FF0"/>
		<stop  offset="1" style="stop-color:#6A82FB"/>
	</linearGradient>
	<polygon style="fill:url(#SVGID_15_);" points="300.674,14.886 312.749,2.82 324.815,14.886 312.749,26.953 	"/>
	
		<linearGradient id="SVGID_16_" gradientUnits="userSpaceOnUse" x1="-30.8146" y1="637.8827" x2="-30.8146" y2="571.8607" gradientTransform="matrix(8.5333 0 0 -8.5333 313.0613 5433.2261)">
		<stop  offset="0" style="stop-color:#FC5C7D"/>
		<stop  offset="0.129" style="stop-color:#F35E85"/>
		<stop  offset="0.343" style="stop-color:#D9659B"/>
		<stop  offset="0.616" style="stop-color:#B070BF"/>
		<stop  offset="0.934" style="stop-color:#777FF0"/>
		<stop  offset="1" style="stop-color:#6A82FB"/>
	</linearGradient>
	<path style="fill:url(#SVGID_16_);" d="M7.443,475.686c0,18.85,15.283,34.133,34.133,34.133h51.2v-17.067h-51.2
		c-9.429,0-17.067-7.637-17.067-17.067v-76.8H7.443V475.686z"/>
	
		<linearGradient id="SVGID_17_" gradientUnits="userSpaceOnUse" x1="-34.8146" y1="637.8827" x2="-34.8146" y2="571.8607" gradientTransform="matrix(8.5333 0 0 -8.5333 313.0613 5433.2261)">
		<stop  offset="0" style="stop-color:#FC5C7D"/>
		<stop  offset="0.129" style="stop-color:#F35E85"/>
		<stop  offset="0.343" style="stop-color:#D9659B"/>
		<stop  offset="0.616" style="stop-color:#B070BF"/>
		<stop  offset="0.934" style="stop-color:#777FF0"/>
		<stop  offset="1" style="stop-color:#6A82FB"/>
	</linearGradient>
	<rect x="7.443" y="364.753" style="fill:url(#SVGID_17_);" width="17.067" height="17.067"/>
	
		<linearGradient id="SVGID_18_" gradientUnits="userSpaceOnUse" x1="21.1854" y1="637.8827" x2="21.1854" y2="571.8607" gradientTransform="matrix(8.5333 0 0 -8.5333 313.0613 5433.2261)">
		<stop  offset="0" style="stop-color:#FC5C7D"/>
		<stop  offset="0.129" style="stop-color:#F35E85"/>
		<stop  offset="0.343" style="stop-color:#D9659B"/>
		<stop  offset="0.616" style="stop-color:#B070BF"/>
		<stop  offset="0.934" style="stop-color:#777FF0"/>
		<stop  offset="1" style="stop-color:#6A82FB"/>
	</linearGradient>
	<rect x="485.31" y="279.42" style="fill:url(#SVGID_18_);" width="17.067" height="128"/>
	
		<linearGradient id="SVGID_19_" gradientUnits="userSpaceOnUse" x1="-25.8146" y1="637.8827" x2="-25.8146" y2="571.8607" gradientTransform="matrix(8.5333 0 0 -8.5333 313.0613 5433.2261)">
		<stop  offset="0" style="stop-color:#FC5C7D"/>
		<stop  offset="0.129" style="stop-color:#F35E85"/>
		<stop  offset="0.343" style="stop-color:#D9659B"/>
		<stop  offset="0.616" style="stop-color:#B070BF"/>
		<stop  offset="0.934" style="stop-color:#777FF0"/>
		<stop  offset="1" style="stop-color:#6A82FB"/>
	</linearGradient>
	<rect x="84.243" y="159.953" style="fill:url(#SVGID_19_);" width="17.067" height="17.067"/>
	
		<linearGradient id="SVGID_20_" gradientUnits="userSpaceOnUse" x1="-20.3146" y1="637.8827" x2="-20.3146" y2="571.8607" gradientTransform="matrix(8.5333 0 0 -8.5333 313.0613 5433.2261)">
		<stop  offset="0" style="stop-color:#FC5C7D"/>
		<stop  offset="0.129" style="stop-color:#F35E85"/>
		<stop  offset="0.343" style="stop-color:#D9659B"/>
		<stop  offset="0.616" style="stop-color:#B070BF"/>
		<stop  offset="0.934" style="stop-color:#777FF0"/>
		<stop  offset="1" style="stop-color:#6A82FB"/>
	</linearGradient>
	<rect x="118.377" y="159.953" style="fill:url(#SVGID_20_);" width="42.667" height="17.067"/>
</g>
<g>
</g>
<g>
</g>
<g>
</g>
<g>
</g>
<g>
</g>
<g>
</g>
<g>
</g>
<g>
</g>
<g>
</g>
<g>
</g>
<g>
</g>
<g>
</g>
<g>
</g>
<g>
</g>
<g>
</g>
</svg>
