<?xml version="1.0" encoding="iso-8859-1"?>
<!-- Generator: Adobe Illustrator 19.0.0, SVG Export Plug-In . SVG Version: 6.00 Build 0)  -->
<svg version="1.1" id="Capa_1" xmlns="http://www.w3.org/2000/svg" xmlns:xlink="http://www.w3.org/1999/xlink" x="0px" y="0px"
	 viewBox="0 0 480 480" style="enable-background:new 0 0 480 480;" xml:space="preserve">
<linearGradient id="SVGID_1_" gradientUnits="userSpaceOnUse" x1="-52.8801" y1="620.569" x2="-52.8801" y2="555.085" gradientTransform="matrix(8 0 0 -8 623.0355 4941)">
	<stop  offset="0" style="stop-color:#FC5C7D"/>
	<stop  offset="0.129" style="stop-color:#F35E85"/>
	<stop  offset="0.343" style="stop-color:#D9659B"/>
	<stop  offset="0.616" style="stop-color:#B070BF"/>
	<stop  offset="0.934" style="stop-color:#777FF0"/>
	<stop  offset="1" style="stop-color:#6A82FB"/>
</linearGradient>
<path style="fill:url(#SVGID_1_);" d="M191.995,32h16v16h-16V32z"/>
<g>
	
		<linearGradient id="SVGID_2_" gradientUnits="userSpaceOnUse" x1="-48.8801" y1="620.569" x2="-48.8801" y2="555.085" gradientTransform="matrix(8 0 0 -8 623.0355 4941)">
		<stop  offset="0" style="stop-color:#FC5C7D"/>
		<stop  offset="0.129" style="stop-color:#F35E85"/>
		<stop  offset="0.343" style="stop-color:#D9659B"/>
		<stop  offset="0.616" style="stop-color:#B070BF"/>
		<stop  offset="0.934" style="stop-color:#777FF0"/>
		<stop  offset="1" style="stop-color:#6A82FB"/>
	</linearGradient>
	<path style="fill:url(#SVGID_2_);" d="M223.995,32h16v16h-16V32z"/>
	
		<linearGradient id="SVGID_3_" gradientUnits="userSpaceOnUse" x1="-47.8794" y1="620.569" x2="-47.8794" y2="555.085" gradientTransform="matrix(8 0 0 -8 623.0355 4941)">
		<stop  offset="0" style="stop-color:#FC5C7D"/>
		<stop  offset="0.129" style="stop-color:#F35E85"/>
		<stop  offset="0.343" style="stop-color:#D9659B"/>
		<stop  offset="0.616" style="stop-color:#B070BF"/>
		<stop  offset="0.934" style="stop-color:#777FF0"/>
		<stop  offset="1" style="stop-color:#6A82FB"/>
	</linearGradient>
	<path style="fill:url(#SVGID_3_);" d="M367.995,40c-0.026-22.08-17.92-39.974-40-40h-224c-22.08,0.026-39.974,17.92-40,40v400
		c0.026,22.08,17.92,39.974,40,40h224c22.08-0.026,39.974-17.92,40-40V336h-0.304c53.019-39.343,64.106-114.218,24.763-167.237
		c-6.994-9.425-15.338-17.769-24.763-24.763h0.304V40z M103.995,16h224c13.255,0,24,10.745,24,24v24h-272V40
		C79.995,26.745,90.74,16,103.995,16z M327.995,464h-224c-13.255,0-24-10.745-24-24v-24h272v24
		C351.995,453.255,341.25,464,327.995,464z M399.995,240c0.028,57.411-46.491,103.974-103.902,104.002
		c-26.881,0.013-52.721-10.387-72.098-29.018V290.44c27.846,39.833,82.711,49.55,122.544,21.704s49.55-82.711,21.704-122.544
		s-82.711-49.55-122.544-21.704c-8.45,5.907-15.796,13.254-21.704,21.704v-24.584c41.385-39.791,107.191-38.499,146.982,2.886
		C389.608,187.279,400.008,213.119,399.995,240z M223.995,240c0-39.764,32.236-72,72-72s72,32.236,72,72s-32.236,72-72,72
		C256.251,311.952,224.043,279.744,223.995,240z M295.995,120c-26.003-0.032-51.298,8.472-72,24.208V112h-16v256h16v-32.208
		c37.027,28.059,86.978,32.061,128,10.256V400h-272V80h272v53.952C334.753,124.785,315.523,119.993,295.995,120z"/>
	
		<linearGradient id="SVGID_4_" gradientUnits="userSpaceOnUse" x1="-40.8801" y1="620.569" x2="-40.8801" y2="555.085" gradientTransform="matrix(8 0 0 -8 623.0355 4941)">
		<stop  offset="0" style="stop-color:#FC5C7D"/>
		<stop  offset="0.129" style="stop-color:#F35E85"/>
		<stop  offset="0.343" style="stop-color:#D9659B"/>
		<stop  offset="0.616" style="stop-color:#B070BF"/>
		<stop  offset="0.934" style="stop-color:#777FF0"/>
		<stop  offset="1" style="stop-color:#6A82FB"/>
	</linearGradient>
	<path style="fill:url(#SVGID_4_);" d="M287.995,278.84V288h16v-9.16c11.999-3.732,18.7-16.484,14.968-28.483
		c-1.844-5.929-6.032-10.847-11.592-13.613l-15.592-7.792c-3.38-1.677-4.76-5.777-3.083-9.157c1.155-2.328,3.532-3.8,6.131-3.795
		h2.336c3.771,0.004,6.828,3.061,6.832,6.832V224h16v-1.168c-0.037-9.94-6.511-18.71-16-21.672V192h-16v9.16
		c-11.999,3.732-18.7,16.484-14.968,28.483c1.844,5.929,6.032,10.847,11.592,13.613l15.592,7.792c3.38,1.677,4.76,5.777,3.083,9.157
		c-1.155,2.328-3.532,3.8-6.131,3.795h-2.336c-3.771-0.004-6.828-3.061-6.832-6.832V256h-16v1.168
		C272.032,267.108,278.506,275.878,287.995,278.84z"/>
	
		<linearGradient id="SVGID_5_" gradientUnits="userSpaceOnUse" x1="-50.8801" y1="620.569" x2="-50.8801" y2="555.085" gradientTransform="matrix(8 0 0 -8 623.0355 4941)">
		<stop  offset="0" style="stop-color:#FC5C7D"/>
		<stop  offset="0.129" style="stop-color:#F35E85"/>
		<stop  offset="0.343" style="stop-color:#D9659B"/>
		<stop  offset="0.616" style="stop-color:#B070BF"/>
		<stop  offset="0.934" style="stop-color:#777FF0"/>
		<stop  offset="1" style="stop-color:#6A82FB"/>
	</linearGradient>
	<path style="fill:url(#SVGID_5_);" d="M207.995,432h16v16h-16V432z"/>
	
		<linearGradient id="SVGID_6_" gradientUnits="userSpaceOnUse" x1="-46.8801" y1="620.569" x2="-46.8801" y2="555.085" gradientTransform="matrix(8 0 0 -8 623.0355 4941)">
		<stop  offset="0" style="stop-color:#FC5C7D"/>
		<stop  offset="0.129" style="stop-color:#F35E85"/>
		<stop  offset="0.343" style="stop-color:#D9659B"/>
		<stop  offset="0.616" style="stop-color:#B070BF"/>
		<stop  offset="0.934" style="stop-color:#777FF0"/>
		<stop  offset="1" style="stop-color:#6A82FB"/>
	</linearGradient>
	<path style="fill:url(#SVGID_6_);" d="M239.995,232h16v16h-16V232z"/>
	
		<linearGradient id="SVGID_7_" gradientUnits="userSpaceOnUse" x1="-34.8801" y1="620.569" x2="-34.8801" y2="555.085" gradientTransform="matrix(8 0 0 -8 623.0355 4941)">
		<stop  offset="0" style="stop-color:#FC5C7D"/>
		<stop  offset="0.129" style="stop-color:#F35E85"/>
		<stop  offset="0.343" style="stop-color:#D9659B"/>
		<stop  offset="0.616" style="stop-color:#B070BF"/>
		<stop  offset="0.934" style="stop-color:#777FF0"/>
		<stop  offset="1" style="stop-color:#6A82FB"/>
	</linearGradient>
	<path style="fill:url(#SVGID_7_);" d="M335.995,232h16v16h-16V232z"/>
</g>
<g>
</g>
<g>
</g>
<g>
</g>
<g>
</g>
<g>
</g>
<g>
</g>
<g>
</g>
<g>
</g>
<g>
</g>
<g>
</g>
<g>
</g>
<g>
</g>
<g>
</g>
<g>
</g>
<g>
</g>
</svg>
