<?xml version="1.0" encoding="iso-8859-1"?>
<!-- Generator: Adobe Illustrator 19.0.0, SVG Export Plug-In . SVG Version: 6.00 Build 0)  -->
<svg version="1.1" id="Capa_1" xmlns="http://www.w3.org/2000/svg" xmlns:xlink="http://www.w3.org/1999/xlink" x="0px" y="0px"
	 viewBox="0 0 505.842 505.842" style="enable-background:new 0 0 505.842 505.842;" xml:space="preserve">
<g>
	
		<linearGradient id="SVGID_1_" gradientUnits="userSpaceOnUse" x1="-5.2578" y1="655.0657" x2="-5.2578" y2="589.0438" gradientTransform="matrix(8.5333 0 0 -8.5333 369.1334 5577.9619)">
		<stop  offset="0" style="stop-color:#FC5C7D"/>
		<stop  offset="0.129" style="stop-color:#F35E85"/>
		<stop  offset="0.343" style="stop-color:#D9659B"/>
		<stop  offset="0.616" style="stop-color:#B070BF"/>
		<stop  offset="0.934" style="stop-color:#777FF0"/>
		<stop  offset="1" style="stop-color:#6A82FB"/>
	</linearGradient>
	<path style="fill:url(#SVGID_1_);" d="M324.267,351.596c-23.561,0-42.667,19.106-42.667,42.667s19.106,42.667,42.667,42.667
		s42.667-19.106,42.667-42.667C366.908,370.711,347.819,351.63,324.267,351.596z M324.267,419.863c-14.14,0-25.6-11.46-25.6-25.6
		c0-14.14,11.46-25.6,25.6-25.6c14.14,0,25.6,11.46,25.6,25.6C349.867,408.402,338.406,419.863,324.267,419.863z"/>
	
		<linearGradient id="SVGID_2_" gradientUnits="userSpaceOnUse" x1="1.7422" y1="655.0657" x2="1.7422" y2="589.0438" gradientTransform="matrix(8.5333 0 0 -8.5333 369.1334 5577.9619)">
		<stop  offset="0" style="stop-color:#FC5C7D"/>
		<stop  offset="0.129" style="stop-color:#F35E85"/>
		<stop  offset="0.343" style="stop-color:#D9659B"/>
		<stop  offset="0.616" style="stop-color:#B070BF"/>
		<stop  offset="0.934" style="stop-color:#777FF0"/>
		<stop  offset="1" style="stop-color:#6A82FB"/>
	</linearGradient>
	<path style="fill:url(#SVGID_2_);" d="M341.333,300.396c0,23.561,19.106,42.667,42.667,42.667s42.667-19.106,42.667-42.667
		c0-23.561-19.106-42.667-42.667-42.667C360.448,257.763,341.359,276.844,341.333,300.396z M384,274.796
		c14.14,0,25.6,11.46,25.6,25.6s-11.46,25.6-25.6,25.6c-14.14,0-25.6-11.46-25.6-25.6S369.86,274.796,384,274.796z"/>
	
		<linearGradient id="SVGID_3_" gradientUnits="userSpaceOnUse" x1="-18.2578" y1="655.0657" x2="-18.2578" y2="589.0438" gradientTransform="matrix(8.5333 0 0 -8.5333 369.1334 5577.9619)">
		<stop  offset="0" style="stop-color:#FC5C7D"/>
		<stop  offset="0.129" style="stop-color:#F35E85"/>
		<stop  offset="0.343" style="stop-color:#D9659B"/>
		<stop  offset="0.616" style="stop-color:#B070BF"/>
		<stop  offset="0.934" style="stop-color:#777FF0"/>
		<stop  offset="1" style="stop-color:#6A82FB"/>
	</linearGradient>
	<path style="fill:url(#SVGID_3_);" d="M213.333,360.129c-23.561,0-42.667,19.106-42.667,42.667s19.106,42.667,42.667,42.667
		S256,426.357,256,402.796C255.974,379.244,236.885,360.163,213.333,360.129z M213.333,428.396c-14.14,0-25.6-11.46-25.6-25.6
		s11.46-25.6,25.6-25.6s25.6,11.46,25.6,25.6S227.473,428.396,213.333,428.396z"/>
	
		<linearGradient id="SVGID_4_" gradientUnits="userSpaceOnUse" x1="-27.2578" y1="655.0657" x2="-27.2578" y2="589.0438" gradientTransform="matrix(8.5333 0 0 -8.5333 369.1334 5577.9619)">
		<stop  offset="0" style="stop-color:#FC5C7D"/>
		<stop  offset="0.129" style="stop-color:#F35E85"/>
		<stop  offset="0.343" style="stop-color:#D9659B"/>
		<stop  offset="0.616" style="stop-color:#B070BF"/>
		<stop  offset="0.934" style="stop-color:#777FF0"/>
		<stop  offset="1" style="stop-color:#6A82FB"/>
	</linearGradient>
	<path style="fill:url(#SVGID_4_);" d="M136.533,283.329c-23.561,0-42.667,19.106-42.667,42.667s19.106,42.667,42.667,42.667
		s42.667-19.106,42.667-42.667C179.174,302.444,160.085,283.363,136.533,283.329z M136.533,351.596c-14.14,0-25.6-11.46-25.6-25.6
		c0-14.14,11.46-25.6,25.6-25.6s25.6,11.46,25.6,25.6C162.133,340.136,150.673,351.596,136.533,351.596z"/>
	
		<linearGradient id="SVGID_5_" gradientUnits="userSpaceOnUse" x1="-28.2578" y1="655.0657" x2="-28.2578" y2="589.0438" gradientTransform="matrix(8.5333 0 0 -8.5333 369.1334 5577.9619)">
		<stop  offset="0" style="stop-color:#FC5C7D"/>
		<stop  offset="0.129" style="stop-color:#F35E85"/>
		<stop  offset="0.343" style="stop-color:#D9659B"/>
		<stop  offset="0.616" style="stop-color:#B070BF"/>
		<stop  offset="0.934" style="stop-color:#777FF0"/>
		<stop  offset="1" style="stop-color:#6A82FB"/>
	</linearGradient>
	<path style="fill:url(#SVGID_5_);" d="M128,257.729c23.561,0,42.667-19.106,42.667-42.667S151.561,172.396,128,172.396
		s-42.667,19.106-42.667,42.667C85.359,238.615,104.448,257.704,128,257.729z M128,189.463c14.14,0,25.6,11.46,25.6,25.6
		c0,14.14-11.46,25.6-25.6,25.6c-14.14,0-25.6-11.46-25.6-25.6C102.4,200.923,113.86,189.463,128,189.463z"/>
	
		<linearGradient id="SVGID_6_" gradientUnits="userSpaceOnUse" x1="-11.6187" y1="655.0657" x2="-11.6187" y2="589.0438" gradientTransform="matrix(8.5333 0 0 -8.5333 369.1334 5577.9619)">
		<stop  offset="0" style="stop-color:#FC5C7D"/>
		<stop  offset="0.129" style="stop-color:#F35E85"/>
		<stop  offset="0.343" style="stop-color:#D9659B"/>
		<stop  offset="0.616" style="stop-color:#B070BF"/>
		<stop  offset="0.934" style="stop-color:#777FF0"/>
		<stop  offset="1" style="stop-color:#6A82FB"/>
	</linearGradient>
	<path style="fill:url(#SVGID_6_);" d="M298.18,166.107c-3.328-3.328-8.738-3.328-12.066,0l-10.428,10.436
		c-24.866-7.185-42.487-22.289-59.469-37.035c-20.958-18.202-40.755-35.379-71.151-35.379c-66.347,0-110.933,65.152-110.933,162.133
		c0,107.52,77.756,221.867,221.867,221.867c145.655,0,221.867-85.862,221.867-170.667c0-68.207-32.597-111.249-96.879-128.196
		L503.561,57.264c3.123-3.362,3.029-8.602-0.222-11.844l-24.132-24.124c-3.243-3.243-8.474-3.345-11.836-0.222L304.435,172.362
		L298.18,166.107z M292.147,184.206l48.282,48.273l-12.075,12.075l-6.195-6.204l-35.84-35.84l-6.204-6.195L292.147,184.206z
		 M276.335,216.633l9.779,9.788l-30.165,30.199l12.066,12.066l30.165-30.174l9.796,9.788c0.759,9.822-2.825,19.49-9.796,26.453
		c-25.31,25.318-60.732,27.87-76.288,28.015c-0.077-15.172,2.697-50.97,28.023-76.288c6.955-6.972,16.597-10.556,26.419-9.822
		L276.335,216.633L276.335,216.633z M460.8,317.463c0,100.838-103.023,153.6-204.8,153.6c-149.197,0-204.8-125.619-204.8-204.8
		c0-86.767,37.726-145.067,93.867-145.067c24.021,0,40.687,14.455,59.964,31.198c16.572,15.974,35.959,28.749,57.173,37.675
		l-0.179,0.171c-2.901,2.953-3.226,7.569-0.777,10.897c-8.858,2.219-16.939,6.793-23.398,13.244
		c-38.665,38.665-32.887,95.095-32.623,97.476c0.435,3.968,3.575,7.108,7.543,7.543c3.405,0.324,6.818,0.478,10.24,0.452
		c18.475,0,57.95-3.789,87.211-33.067c6.443-6.443,11.017-14.515,13.235-23.356c1.408,1.067,3.106,1.664,4.873,1.707
		c2.27,0,4.437-0.896,6.042-2.5l24.132-24.141c3.328-3.328,3.328-8.738,0-12.066l-6.255-6.255l15.36-16.512
		C430.242,217.017,460.8,254.239,460.8,317.463z M472.96,39.174l12.501,12.501L340.198,208.116l-23.689-23.68L472.96,39.174z"/>
	
		<linearGradient id="SVGID_7_" gradientUnits="userSpaceOnUse" x1="-1.2578" y1="655.0657" x2="-1.2578" y2="589.0438" gradientTransform="matrix(8.5333 0 0 -8.5333 369.1334 5577.9619)">
		<stop  offset="0" style="stop-color:#FC5C7D"/>
		<stop  offset="0.129" style="stop-color:#F35E85"/>
		<stop  offset="0.343" style="stop-color:#D9659B"/>
		<stop  offset="0.616" style="stop-color:#B070BF"/>
		<stop  offset="0.934" style="stop-color:#777FF0"/>
		<stop  offset="1" style="stop-color:#6A82FB"/>
	</linearGradient>
	<polygon style="fill:url(#SVGID_7_);" points="310.025,114.856 395.358,38.056 406.775,50.736 321.442,127.545 	"/>
	
		<linearGradient id="SVGID_8_" gradientUnits="userSpaceOnUse" x1="5.8982" y1="655.0657" x2="5.8982" y2="589.0438" gradientTransform="matrix(8.5333 0 0 -8.5333 369.1334 5577.9619)">
		<stop  offset="0" style="stop-color:#FC5C7D"/>
		<stop  offset="0.129" style="stop-color:#F35E85"/>
		<stop  offset="0.343" style="stop-color:#D9659B"/>
		<stop  offset="0.616" style="stop-color:#B070BF"/>
		<stop  offset="0.934" style="stop-color:#777FF0"/>
		<stop  offset="1" style="stop-color:#6A82FB"/>
	</linearGradient>
	<polygon style="fill:url(#SVGID_8_);" points="407.689,26.1 419.823,15.178 431.241,27.867 419.106,38.781 	"/>
	
		<linearGradient id="SVGID_9_" gradientUnits="userSpaceOnUse" x1="-42.2048" y1="655.0657" x2="-42.2048" y2="589.0438" gradientTransform="matrix(8.5333 0 0 -8.5333 369.1334 5577.9619)">
		<stop  offset="0" style="stop-color:#FC5C7D"/>
		<stop  offset="0.129" style="stop-color:#F35E85"/>
		<stop  offset="0.343" style="stop-color:#D9659B"/>
		<stop  offset="0.616" style="stop-color:#B070BF"/>
		<stop  offset="0.934" style="stop-color:#777FF0"/>
		<stop  offset="1" style="stop-color:#6A82FB"/>
	</linearGradient>
	<path style="fill:url(#SVGID_9_);" d="M0,266.263c0,0.273,0,6.895,0.973,17.818l16.998-1.502
		c-0.905-10.095-0.905-16.256-0.905-16.324L0,266.263z"/>
	
		<linearGradient id="SVGID_10_" gradientUnits="userSpaceOnUse" x1="-37.7523" y1="655.0657" x2="-37.7523" y2="589.0438" gradientTransform="matrix(8.5333 0 0 -8.5333 369.1334 5577.9619)">
		<stop  offset="0" style="stop-color:#FC5C7D"/>
		<stop  offset="0.129" style="stop-color:#F35E85"/>
		<stop  offset="0.343" style="stop-color:#D9659B"/>
		<stop  offset="0.616" style="stop-color:#B070BF"/>
		<stop  offset="0.934" style="stop-color:#777FF0"/>
		<stop  offset="1" style="stop-color:#6A82FB"/>
	</linearGradient>
	<path style="fill:url(#SVGID_10_);" d="M3.004,301.591c6.204,43.674,23.04,105.139,67.763,149.905c2.91,2.91,5.897,5.7,8.943,8.371
		l11.247-12.8c-2.765-2.423-5.47-4.958-8.124-7.603C39.253,395.799,24.687,332.84,19.9,299.193L3.004,301.591z"/>
	
		<linearGradient id="SVGID_11_" gradientUnits="userSpaceOnUse" x1="9.1117" y1="655.0657" x2="9.1117" y2="589.0438" gradientTransform="matrix(8.5333 0 0 -8.5333 369.1334 5577.9619)">
		<stop  offset="0" style="stop-color:#FC5C7D"/>
		<stop  offset="0.129" style="stop-color:#F35E85"/>
		<stop  offset="0.343" style="stop-color:#D9659B"/>
		<stop  offset="0.616" style="stop-color:#B070BF"/>
		<stop  offset="0.934" style="stop-color:#777FF0"/>
		<stop  offset="1" style="stop-color:#6A82FB"/>
	</linearGradient>
	<path style="fill:url(#SVGID_11_);" d="M486.758,377.478c-13.047,46.711-49.442,83.268-96.094,96.521l1.869,8.329l1.852,8.337
		c52.676-14.618,93.892-55.671,108.723-108.288L486.758,377.478z"/>
</g>
<g>
</g>
<g>
</g>
<g>
</g>
<g>
</g>
<g>
</g>
<g>
</g>
<g>
</g>
<g>
</g>
<g>
</g>
<g>
</g>
<g>
</g>
<g>
</g>
<g>
</g>
<g>
</g>
<g>
</g>
</svg>
